<svg xmlns="http://www.w3.org/2000/svg" xmlns:cc="http://web.resource.org/cc/" xmlns:svg="http://www.w3.org/2000/svg" xmlns:xlink="http://www.w3.org/1999/xlink" id="svg4964" width="22" height="22" version="1.0"><defs id="defs4966"><linearGradient id="linearGradient6005"><stop style="stop-color:#d3d7cf;stop-opacity:1" id="stop6007" offset="0"/><stop style="stop-color:#eeeeec;stop-opacity:1" id="stop6009" offset="1"/></linearGradient><radialGradient id="radialGradient6011" cx="-4.463" cy="15.481" r="8" fx="-4.463" fy="15.481" gradientTransform="matrix(0.8372179,0,0,1,-2.6396268,-1.3388562e-6)" gradientUnits="userSpaceOnUse" xlink:href="#linearGradient6005"/><radialGradient id="radialGradient6025" cx="-4.463" cy="15.481" r="8" fx="-4.463" fy="15.481" gradientTransform="matrix(0.8372179,0,0,1,0.4663594,4.3022547)" gradientUnits="userSpaceOnUse" xlink:href="#linearGradient6005"/><radialGradient id="radialGradient6033" cx="-4.463" cy="15.481" r="8" fx="-4.463" fy="15.481" gradientTransform="matrix(0.8529359,0,0,1.0190474,0.4680829,4.2987572)" gradientUnits="userSpaceOnUse" xlink:href="#linearGradient6005"/><radialGradient id="radialGradient6051" cx="-4.463" cy="15.481" r="8" fx="-4.463" fy="15.481" gradientTransform="matrix(0.8372179,0,0,1,-2.6396268,-1.3388562e-6)" gradientUnits="userSpaceOnUse" xlink:href="#linearGradient6005"/><radialGradient id="radialGradient6053" cx="-4.463" cy="15.481" r="8" fx="-4.463" fy="15.481" gradientTransform="matrix(0.8372179,0,0,1,-2.6396268,-1.3388562e-6)" gradientUnits="userSpaceOnUse" xlink:href="#linearGradient6005"/></defs><metadata id="metadata4969"/><g id="layer1"><g id="g6041" transform="translate(17,-2)"><rect id="rect6043" width="15" height="15" x="-16.5" y="3.5" rx="1.579" ry="1.579" style="opacity:1;fill:url(#radialGradient6051);fill-opacity:1;stroke:#888a85;stroke-width:1;stroke-linecap:round;stroke-linejoin:miter;stroke-miterlimit:4;stroke-dasharray:none;stroke-dashoffset:0;stroke-opacity:1"/><rect id="rect6045" width="11" height="9" x="-14.5" y="5.5" rx="0" ry="0" style="opacity:1;fill:#729fcf;fill-opacity:1;stroke:#3465a4;stroke-width:.99999994;stroke-linecap:round;stroke-linejoin:miter;stroke-miterlimit:4;stroke-dasharray:none;stroke-dashoffset:0;stroke-opacity:1"/><rect id="rect6047" width="13" height="13" x="-15.5" y="4.5" rx=".6" ry=".6" style="opacity:.85326089;fill:none;fill-opacity:1;stroke:#fff;stroke-width:.99999994;stroke-linecap:round;stroke-linejoin:miter;stroke-miterlimit:4;stroke-dasharray:none;stroke-dashoffset:0;stroke-opacity:1"/><path id="path6049" d="M -15,11.073498 C -15,11.073498 -13.105133,8.9922368 -9,9 C -4.8949288,9.0077631 -3,7 -3,7 L -3,5 L -15,5 L -15,11.073498 z" style="opacity:.3;fill:#fff;fill-opacity:1;fill-rule:evenodd;stroke:none;stroke-width:1px;stroke-linecap:butt;stroke-linejoin:miter;stroke-opacity:1"/></g><path style="opacity:1;fill:#888a85;fill-opacity:1;stroke:#555753;stroke-width:.97463799;stroke-linecap:round;stroke-linejoin:miter;stroke-miterlimit:4;stroke-dasharray:none;stroke-dashoffset:0;stroke-opacity:1" id="path5969" d="M 15.628067 7.4882236 A 1.4958292 1.4288518 0 1 1 12.636408,7.4882236 A 1.4958292 1.4288518 0 1 1 15.628067 7.4882236 z" transform="matrix(1.0027883,0,0,1.0497939,-6.1716423,-5.8610915)"/><g id="g6027" transform="matrix(0.9659258,0.258819,-0.258819,0.9659258,22.322101,-0.923768)"><rect id="rect6017" width="15.282" height="15.286" x="-13.653" y="7.865" rx="1.579" ry="1.579" transform="matrix(1,7.7475717e-5,7.7455503e-5,1,0,0)" style="opacity:1;fill:url(#radialGradient6033);fill-opacity:1;stroke:#5e5f5c;stroke-width:1;stroke-linecap:round;stroke-linejoin:miter;stroke-miterlimit:4;stroke-dasharray:none;stroke-dashoffset:0;stroke-opacity:1"/><rect id="rect6019" width="11.207" height="9.171" x="-11.615" y="9.904" rx="0" ry="0" transform="matrix(1,7.7475717e-5,7.7455503e-5,1,0,0)" style="opacity:1;fill:#ff0084;fill-opacity:1;stroke:#d8006f;stroke-width:1;stroke-linecap:round;stroke-linejoin:miter;stroke-miterlimit:4;stroke-dasharray:none;stroke-dashoffset:0;stroke-opacity:1"/><rect id="rect6021" width="13.244" height="13.248" x="-12.634" y="8.884" rx=".6" ry=".6" transform="matrix(1,7.7475717e-5,7.7455503e-5,1,0,0)" style="opacity:.85326089;fill:none;fill-opacity:1;stroke:#fff;stroke-width:1;stroke-linecap:round;stroke-linejoin:miter;stroke-miterlimit:4;stroke-dasharray:none;stroke-dashoffset:0;stroke-opacity:1"/><path id="path6023" d="M -12.123137,15.582239 C -12.123137,15.582239 -10.19286,13.461485 -6.0106566,13.46972 C -1.8285162,13.477955 0.10182943,11.432098 0.10182943,11.432098 L 0.10167157,9.3940037 L -12.123616,9.3930565 L -12.123137,15.582239 z" style="opacity:.3;fill:#fff;fill-opacity:1;fill-rule:evenodd;stroke:none;stroke-width:1px;stroke-linecap:butt;stroke-linejoin:miter;stroke-opacity:1"/></g><path style="opacity:1;fill:#888a85;fill-opacity:1;stroke:#555753;stroke-width:.95654899;stroke-linecap:round;stroke-linejoin:miter;stroke-miterlimit:4;stroke-dasharray:none;stroke-dashoffset:0;stroke-opacity:1" id="path5967" d="M 15.628067 7.4882236 A 1.4958292 1.4288518 0 1 1 12.636408,7.4882236 A 1.4958292 1.4288518 0 1 1 15.628067 7.4882236 z" transform="matrix(1.0215934,0,0,1.069812,-0.5781474,-0.9442515)"/><path style="opacity:1;fill:#eeeeec;fill-opacity:1;stroke:none;stroke-width:1;stroke-linecap:round;stroke-linejoin:miter;stroke-miterlimit:4;stroke-dasharray:none;stroke-dashoffset:0;stroke-opacity:1" id="path5985" d="M -9.6000983 4.8761039 A 1.1162905 1.5851325 0 1 1 -11.832679,4.8761039 A 1.1162905 1.5851325 0 1 1 -9.6000983 4.8761039 z" transform="matrix(0.4563118,0,0,0.3214458,18.239891,4.9898022)"/><path style="opacity:1;fill:#eeeeec;fill-opacity:1;stroke:none;stroke-width:1;stroke-linecap:round;stroke-linejoin:miter;stroke-miterlimit:4;stroke-dasharray:none;stroke-dashoffset:0;stroke-opacity:1" id="path5987" d="M -9.6000983 4.8761039 A 1.1162905 1.5851325 0 1 1 -11.832679,4.8761039 A 1.1162905 1.5851325 0 1 1 -9.6000983 4.8761039 z" transform="matrix(0.4479122,0,0,0.315431,12.300001,-3.8074222e-2)"/></g></svg>